<svg xmlns="http://www.w3.org/2000/svg" version="1.0" viewBox="0 0 2560 2560"><path d="M768 1280v512h1024V768H768zm721.6-425.8c-.3 1.3-.7 3.8-1 5.6-.3 1.9-2 5.2-3.7 7.3-1.7 2.2-4.3 6.2-5.8 9l-2.8 5-.6-5.3c-.3-2.9-1.9-8.4-3.5-12.3-1.7-3.8-2.9-7.1-2.8-7.3.5-.4 16.9-4 18.9-4.1 1.3-.1 1.6.5 1.3 2.1m-72.6 35.2v7.5l-5.7 3.2c-3.2 1.8-8.5 5.6-11.9 8.5l-6.1 5.2 3.5-8c3.1-7.4 3.4-8.7 3-15.4l-.5-7.3 4.6-.4c2.5-.2 6.5-.4 8.9-.5l4.2-.2zm113.5 7.6c2.3 2.5 2.4 7 .2 10.3-1.1 1.8-3.1 2.8-6.7 3.6-2.8.6-8.5 2.4-12.7 4.1l-7.6 2.9 7.1-6.5c5.5-5 7.2-7.2 7.2-9.3 0-1.4.7-3.7 1.6-4.9 2-2.9 8.3-3.1 10.9-.2m-53.2 29.3c7.3 3.3 16.4 12.4 20 19.7 11.6 24.1-3 52.3-29.5 57.3-5.6 1-8.3.8-19.8-1.9-2.2-.4-3.1.3-6.8 5.5-5.1 7-23.1 24.7-31.7 31.2-21.9 16.6-39.8 24-92.5 38.3-38 10.2-33.1 9.9-40.4 2.9-9.2-8.9-18.4-14.9-30.3-19.8l-5.7-2.3 7.4-2.2c4.1-1.2 12.5-3.7 18.5-5.5 6.1-1.8 24.3-6.8 40.5-11 50.1-13.1 69.2-20.3 90.3-34.1 10-6.5 22.5-16.2 25.9-20.1 1.7-1.8 1.7-2.2-.2-7.1-8.2-21.4 3.1-45.2 24.9-52.4 8.4-2.7 21.7-2.1 29.4 1.5m-102.2.8c7.1 3.6 12.9 12.7 12.9 20.4 0 14.1-14.6 25.1-28.2 21.3-2.3-.7-3-.3-6.1 4-5.2 7.1-16.1 18.5-23.1 24.1-18 14.4-34.9 21.2-74.1 30.1-38.1 8.7-51.8 13.4-67.4 23.2-1.8 1.2-7.1 3.2-11.7 4.5-30.5 8.5-55.2 30.6-67.5 60.2-7.8 18.7-9.6 44.3-4.5 63.6 5.8 22.1 17.3 39.6 39.4 59.8 9.9 9 9.6 7.7 10.3 48.2.6 38.5.6 38.7 7.1 46.1 3.4 3.8 11.7 8.4 15.3 8.4 1.2 0 3.9 2.2 6.4 5.1 5.9 6.9 12.4 9.9 21.3 9.9 9.4 0 16.6-2.9 22.8-9.1 3.1-3.1 6.1-5.2 8.2-5.6 1.8-.3 5-1.4 7.1-2.5 2.9-1.4 3.8-1.6 4.2-.6.2.7 4.9 14.6 10.4 30.8 5.4 16.2 12.9 38 16.6 48.5 10.1 28.7 12.8 36.6 12.3 37-.2.2-7.3 2.4-15.8 4.9-39.6 11.5-74.3 26.4-104.7 44.8l-3.3 1.9 4.1-8.8c11.4-24.7 22.6-51.9 32.1-77.8 2.6-7.2 9.8-34.6 9.8-37.5 0-.6-3.9 2.4-8.7 6.7-29.1 26-56.4 42.4-108.9 65.6-30.8 13.5-31.4 13.7-46.6 13.7-18.5-.1-23.7-2.7-26.7-13.5-1.4-5.1-.6-9.8 3-17.1l2.8-5.9-4.3-4.5c-5.7-5.9-6.6-7.7-7.3-15.4l-.6-6.5 18.1-.3c17.5-.3 18.1-.4 20.6-2.7 3.2-3 3.3-5.1.2-8-2.3-2.2-3-2.2-21-2.1H1011v-11c0-9.8.2-11 1.8-11 4.9 0 12.2-7.8 12.2-13 0-3.1-3.1-7.9-6.2-9.6-1.7-1-8.4-1.3-24.6-1.4h-22.3l.6-2.3c1-3.2 15.1-37.7 25.2-61.5l8.6-20.2h15.6l1.9 4.2c2.1 4.7 7.8 10.3 12.7 12.4 12.1 5 24.6 1.2 41-12.4 6.3-5.2 14-9.2 29.7-15.4 9.7-3.8 9.8-3.7-8.2-10.7-13.8-5.5-27.2-9.2-42.5-11.7-13.4-2.2-37.1-2.3-49.5-.1-5.2.9-9.6 1.4-9.8 1.2-.3-.2-.7-5.3-.9-11.2-1.1-23.6 6-55.2 18.1-80.8 22.7-47.9 64.8-87.7 117.5-111 22.9-10.1 53.2-18.8 90.6-26 53-10.1 68.2-13.9 85.5-21.2 10.6-4.6 23-11.8 30.3-17.8l5.6-4.5-.6-6.3c-1.1-12.3 4.1-21.1 14.7-24.8 6.2-2.1 11.3-1.8 17.1 1.2m-75.7 8.8 6 .6-5.7 6.2c-13.2 14.1-24.4 17.9-76.2 25.8-39.6 6-68.1 12.9-91.8 22.1-23.5 9.2-52.3 25.6-72 41-11.2 8.9-38.6 36.8-46.9 48.1-31.3 42-46.8 86.8-46.8 134.9 0 18.2 1.8 27.8 6.9 36.8l2.9 5.1-1.8 4.5c-.9 2.5-5.9 14.6-11 27-21.1 51.4-21.8 53.4-20.1 62.5 1.9 10.2 6.9 17.3 14.9 21.2 4.6 2.2 7.3 2.8 15 3.1 8.1.4 9.2.7 8.6 2.1-.3.9-.9 4.8-1.1 8.8-.5 6.5-.3 7.8 2.6 13.8 3.1 6.7 3.1 6.8 1.6 11.8-2.7 9.1-1.6 15.4 4.2 23.8 3.5 5.1 3.5 5.4 2.5 9.8-4.1 16.5-.8 30.2 9.9 41.2 10.1 10.3 20.7 13.2 46.4 12.7 17.7-.4 18.2-.5 28.7-4.1 5.9-2 11.1-3.7 11.5-3.7.5 0 2.2 5.1 3.7 11.2l2.9 11.3-3 6.5c-1.7 3.6-8.3 18.4-14.8 33s-12 26.7-12.2 27c-.6.7-4.7-2.1-16.5-11.5-15.3-12.1-46.2-43.1-58.8-59-60.1-75.6-85.1-166.8-72.4-264.2 5.5-42.9 20.6-88.5 41.4-126 48.6-87.3 127.7-148.1 224-172.3 22.9-5.8 40.2-8.6 69-11.3 6.4-.6 42.4-.5 48.4.2m264 26.5c4.8 3.7 6.6 7.4 6.6 14.1 0 6.4-1.6 10.2-6 13.8-4.5 3.8-9.4 4.9-15.7 3.6l-5.2-1.2-9.8 6.5c-5.4 3.6-12.5 8.2-15.8 10.3l-6 3.8 5-5.4c6.2-6.6 4.7-5 13.8-14.5l7.8-8.1-1.2-4.7c-2-8.2 2-16.7 9.6-20.2 4.7-2.2 12.7-1.3 16.9 2m40.3 50.1c.8.3.9 1.4.3 3.7-.5 1.8-1.4 5.2-2 7.5-1.1 4.3-1.1 4.3-5.8 4.3-5.6 0-25.8 2.6-27.2 3.5-.6.3-1 .4-1 .1 0-.2 2.8-2 6.3-4 8.7-4.8 11.4-7.8 12.8-14l1.1-5.3 7.2 1.9c3.9 1.1 7.6 2.1 8.3 2.3m-75 24.9c7.3 3.3 14.7 10.6 18.4 18.1 2.1 4.3 2.4 6.4 2.4 15 0 8.8-.3 10.7-2.7 15.7-3.4 7.4-10.6 14.3-18.8 18.2-5.8 2.8-7.5 3.1-16 3.1-8.3 0-10.2-.3-15.1-2.7-5.2-2.6-14.8-11.5-17.5-16.3-1-1.7-1.7-1.5-13 3.9-14.9 7.1-28.7 14.9-42.9 24.2-20.6 13.4-19.7 13-84.4 30.3-14.5 3.9-27 7.1-27.6 7.1-.8 0-1.4-2.8-1.8-7.9-.7-9.5-3.7-21.7-7.4-30.1-1.4-3.3-2.4-6.3-2.1-6.5.5-.5 66.2-17.5 77.6-20 4-1 7.5-1.5 7.7-1.3s-2 3.5-5 7.3c-3 3.9-5.7 8.1-6 9.4-.8 3.1 2 6.1 5.6 6.1 2.9 0 25.1-6.8 70.6-21.6 24.4-8 26.3-8.8 25.9-10.8-1.4-6.6-1.4-9.1-.5-14.3 2.6-13.9 11.5-24.1 24.8-28.5 8.3-2.7 19.7-2 27.8 1.6m-104.2 31.1c1.4 1.3 2.5 3.6 2.5 5s-1.1 3.7-2.5 5c-3.9 4-9.2 3-11.4-2.3-3.1-7.5 5.7-13.5 11.4-7.7m208.7 6.2c4.9 2 11.5 9.4 12.9 14.7 2.4 9-.7 19.2-8.2 26.7-13.2 13.2-28.2 18.5-132.9 47.4-61.6 17-80.9 22.9-150.5 45.5-40.9 13.3-54.5 17.6-82 25.7-1.1.3.1-1.3 2.9-3.8 9.1-8.1 17.2-18.6 22.9-29.9 3.1-5.9 6.1-12.6 6.8-14.9 1.3-4.5.8-4.3 20.9-10 46.4-13.2 100.2-26.6 162.2-40.6 49.4-11.1 85.2-20.6 107.8-28.7l6.5-2.3-.3-7.6c-.3-6.1 0-8.4 1.6-11.5 6-11.6 17.1-15.6 29.4-10.7m-409.4 2.9c8.4 2.1 20.9 8.4 27.4 13.7 19.9 16.2 29.8 36.5 30.1 61.2.3 23.6-9.1 43.1-30 62.2-7.4 6.7-9.5 9.3-12.1 15-3.5 7.8-5.2 16.4-5.2 27.5v7.8h-55v-9.8c0-18.9-3.8-27.4-19-42.2-15.6-15.1-20.4-22.1-25.7-37.5-3.4-9.7-4.2-25.9-1.9-37.4 8.8-43.4 50.5-71 91.4-60.5m431.8 77c8.4 3 8.1 2.2 5 12.9l-1.2 4h-17.1c-16.2 0-19.8-.5-13.5-2 4.3-1 13.6-6.9 14.9-9.6.7-1.3 1.5-3.6 1.8-5.2.3-1.5 1-2.7 1.6-2.7s4.4 1.2 8.5 2.6m-72.7 19.8c4.2 2.2 8.9 8.1 9.7 12.1 1.4 7.5-2.7 15.4-9.7 19.1-3.2 1.6-10.6 1.9-14.4.4-2.3-.9-4.2.1-19.3 10.1l-16.7 11.1 8.6-8.8c4.7-4.9 10.8-11.3 13.5-14.2l4.9-5.4v-7.2c0-6.1.4-7.8 2.5-10.9 4.5-6.7 14.4-9.6 20.9-6.3m-71.9 28.4c-6.3 5.9-17.7 16.6-25.2 23.8-7.6 7.2-14.8 13.4-16 13.6-1.3.3-12.9 3.5-25.8 7.1s-52.5 14.8-88 24.7c-83.4 23.4-96.2 27-97.7 27-1 0-1.3-4.1-1.3-17.4v-17.4l14.8-4c127.1-35.2 246.6-67.7 250.2-68.1.3 0-4.7 4.8-11 10.7m136.2 36.4c.3 5.6.3 10.9.1 11.8-.3 1.3-9.7 4.2-37.6 11.8-20.5 5.6-48.7 13.4-62.7 17.3-57.2 15.7-252.3 68.9-253 68.9-1.2 0-8.3-20.1-7.4-20.9.5-.5 20.9-6.3 45.4-13 49.9-13.7 183-50.2 204.5-56.1 7.7-2.1 29.1-7.9 47.5-13 36.4-10 61.1-16.8 62.1-16.9.4-.1.9 4.5 1.1 10.1m-.5 44.4c-.4 6.4-.9 11.9-1.2 12.2-.2.3-20.6 6-45.2 12.8-82.8 22.7-106.6 29.2-142.8 39.3-19.8 5.5-39.4 10.9-43.5 12s-21.4 5.8-38.5 10.4c-53.3 14.6-65.1 17.7-66.6 17.7-1.6 0-9.4-19.9-8.2-21 .4-.4 12.5-3.9 26.8-7.8 27.2-7.4 87-23.9 108.5-29.8 12.7-3.6 26.1-7.3 52-14.3 8-2.2 22.8-6.3 33-9.1s24.1-6.7 31-8.5c6.9-1.9 30.5-8.3 52.5-14.4 22-6 40.6-11 41.4-11 1.2-.1 1.3 1.9.8 11.5M1234 1285v5h-55v-10h55zm0 19.5v4.5h-55v-9h55zm-16.7 17.8c3 .4-7.1 7.7-10.6 7.7-3.3 0-8.2-2.9-10.8-6.4l-1.6-2.1 10.6.3c5.8.1 11.4.4 12.4.5m423.8 13.4c-2.2 13.9-2.7 15.1-6.9 16.3-5.4 1.5-93.7 25.5-136.7 37.1-20.3 5.5-45.1 12.2-55 14.9s-28.8 7.8-42 11.4c-38.3 10.4-73.4 19.6-74.8 19.6-1 0-9-18.9-8.3-19.7.1-.1 6.7-2 14.7-4.2 7.9-2.1 36.7-10 63.9-17.4s61.2-16.7 75.5-20.5c38.8-10.5 97.1-26.3 131.5-35.7 33.5-9.1 38.3-10.3 38.9-9.9.2.2-.2 3.8-.8 8.1m-9.4 44.6c-.3.7-1.5 4.8-2.7 9.2-4.6 16.4-15.7 43.7-24.9 61-17 32.2-34.8 56.8-60.6 83.3-37 38.2-75.8 64.2-124.5 83.5-31.1 12.3-62.3 20.5-96.5 25.2-15.7 2.2-56.9 3.1-74.6 1.6-23.6-2-60.2-9.1-73.5-14.1l-2.9-1.2 3-2.5c1.7-1.4 6.6-4.8 11-7.7 42.3-27.7 87.4-47.5 135.8-59.5 38.2-9.5 69.1-13.5 114.1-14.8 26.5-.7 26.6-.8 6.1-5.3-21.3-4.7-55.6-9-72.6-9-3.6 0-6.9-.3-7.3-.7-1-1 13-5 26.9-7.8 37.4-7.3 78.8-11.8 127.9-14.1 8.2-.4 16.1-1 17.5-1.4 2.3-.6 1.9-.8-2.9-1.9-20.3-4.4-36.7-6-68.5-6.8-46.1-1-83.9 3.6-133.1 16.2-59.9 15.4-102.2 32.5-149.9 60.5-9.6 5.7-36.9 23.9-47.5 31.8-26.4 19.6-49.3 38.8-73.2 61.4-7.6 7.1-13.5 12.2-13.1 11.2.3-.9 3.1-6.3 6.1-11.8 12.7-23.4 27.9-46.6 43.1-65.6 40.5-50.9 106.3-90.1 186.6-111 25.7-6.8 46.4-10.3 74.8-13.1 7.1-.6 12.5-1.5 12-1.9-.9-.9-17.1-4.6-24.3-5.6-6.5-1-7.6-1.8-8.9-7-.7-2.5-1.1-4.7-.9-4.8.2-.2 5.7-1.6 12.3-3.3s26.4-7 44-11.6c17.6-4.7 46.4-12.4 64-17.1 30.7-8.1 63.6-16.9 138.5-37.1 35.6-9.6 39.6-10.5 38.7-8.2"/><path d="M1168.5 1143.4c-4.3 4.3-4.5 17.7-.4 25.8 4.3 8.4 13.1 15.9 22.9 19.5l5.5 2.1.5 26.8c.3 14.8.9 27.7 1.4 28.7 1.3 2.7 6.3 4.9 9.5 4.2 1.6-.3 3.9-1.7 5.2-3.1 2.4-2.5 2.4-2.8 2.9-29.6l.5-27 5-1.7c10.8-3.8 20.1-11.8 24.2-20.8 2.2-4.7 2.5-6.5 2.2-13.9-.4-7.9-.6-8.8-3.2-11-3.6-3.1-7.8-3.1-11.3 0-2.6 2.1-2.8 3.1-3.3 11.2-.4 4.9-1 9.5-1.5 10.2-1.1 1.8-9.6 7.2-11.3 7.2-1 0-1.3-2.9-1.3-12.6 0-12.5 0-12.6-2.9-15.5-2.1-2-3.9-2.9-6.3-2.9-7.6 0-9.8 4.7-9.8 20.8 0 10.3 0 10.3-2.2 9.6-3.2-.9-7.3-4-9.8-7.1-1.6-2.1-2-4-2-10.3 0-7-.2-8-2.6-10.4-3.5-3.4-8.6-3.5-11.9-.2m411.5 272.2c-5.9 1.8-28 7.8-80.8 21.9-23.9 6.3-44.6 12.2-46.2 13-4.1 2.1-6 5.3-6 10 0 4.2 2.3 7.4 6.1 8.8 1 .3 13.6-2.6 28-6.4 14.5-3.8 34.3-9 43.9-11.5 31.9-8.2 40.5-10.6 43-11.9 6.1-3.1 20-20 20-24.3 0-1.5-2.3-1.4-8 .4"/></svg>